# xmcd CD database file
#
# Track frame offsets:
#	150
#	36975
#	74135
#	118180
#	151875
#	179500
#	197350
#	220900
#	250765
#	272925
#
# Disc length: 3802 seconds
#
# Revision: 0
# Processed by: cddbd v1.5.2PL0 Copyright (c) Steve Scherf et al.
# Submitted via: CDex 1.51
#
DISCID=990ed80a
DTITLE=Fredric Zimmerman - Alex Zepeda - Duets, Vol 2 - Improvisations
DYEAR=2000
DGENRE=Jazz
TTITLE0=Meditation I
TTITLE1=Meditation II
TTITLE2=Meditation III
TTITLE3=Meditation IV
TTITLE4=Free Jazz I
TTITLE5=Free Jazz II
TTITLE6=Free Jazz III
TTITLE7=Escape 
TTITLE8=Mikrocosmo I
TTITLE9=Mikrocosmo II
EXTD=YEAR: 2000
EXTT0=
EXTT1=
EXTT2=
EXTT3=
EXTT4=
EXTT5=
EXTT6=
EXTT7=
EXTT8=
EXTT9=
PLAYORDER=
